<svg width="329" height="257" viewBox="0 0 329 257" fill="none" xmlns="http://www.w3.org/2000/svg">
<path fill-rule="evenodd" clip-rule="evenodd" d="M121.325 61.7616C128.033 59.0618 135.064 56.9941 142.344 55.6322L142.62 55.6668C143.028 55.7176 143.415 55.7659 143.735 55.8128C145.688 56.0986 147.322 56.5655 148.658 57.934C150.021 59.3296 151.381 61.9868 151.932 67.3511C152.479 72.6652 151.493 75.2174 150.227 76.6437C148.869 78.1728 146.8 78.9073 143.91 79.7174C143.676 79.7831 143.436 79.8492 143.192 79.9167C140.635 80.622 137.554 81.4717 134.997 83.3764C132.029 85.5872 129.943 89.0365 129.31 94.5866C128.735 99.6218 129.468 103.483 131.296 106.292C133.144 109.132 135.909 110.587 138.742 111.195C139.921 111.448 141.174 111.66 142.37 111.862L142.37 111.862L142.37 111.862C142.853 111.944 143.327 112.024 143.782 112.104C145.424 112.394 146.901 112.701 148.17 113.135C149.44 113.569 150.355 114.083 150.97 114.7C151.542 115.272 151.953 116.028 152.067 117.186C152.102 117.535 152.124 117.899 152.132 118.277C135.845 121.686 121.541 127.726 109.219 136.398C107.485 134.511 106.47 132.922 105.995 131.657C105.437 130.17 105.682 129.351 106.096 128.819C106.617 128.15 107.812 127.407 110.114 126.985C112.365 126.573 115.386 126.523 119.129 126.95C121.136 127.178 122.809 127.232 124.148 127.069C125.426 126.913 126.791 126.516 127.709 125.467C128.733 124.297 128.742 122.879 128.47 121.767C128.207 120.695 127.625 119.602 126.969 118.573C125.734 116.638 123.832 114.33 121.835 111.909L121.835 111.909L121.417 111.402C119.224 108.74 116.884 105.868 114.865 102.886C110.789 96.8645 107.593 89.5668 107.347 84.2353C107.226 81.5986 107.837 79.8322 108.952 78.7864C110.064 77.7447 112.174 76.9513 116.13 77.4025C120.634 77.9163 124.874 77.5832 128.151 76.6727C129.785 76.2188 131.265 75.598 132.432 74.7996C133.569 74.0221 134.644 72.9093 134.983 71.4059C135.349 69.7826 134.736 68.2886 133.668 67.1126C132.641 65.9814 131.096 65.0115 129.147 64.1631C127.153 63.2954 124.57 62.4845 121.325 61.7616ZM105.741 138.961C103.938 136.943 102.661 135.005 101.971 133.166C101.039 130.681 101.138 128.194 102.704 126.18C104.163 124.305 106.584 123.263 109.339 122.758C112.145 122.244 115.62 122.224 119.617 122.679C121.48 122.892 122.773 122.907 123.629 122.803C123.921 122.767 124.126 122.722 124.266 122.682C124.15 122.296 123.872 121.709 123.346 120.885C122.258 119.18 120.515 117.065 118.428 114.532L118.1 114.135C115.915 111.482 113.452 108.466 111.306 105.295C107.053 99.0121 103.353 90.9239 103.054 84.4328C102.903 81.1582 103.609 77.9042 106.013 75.6509C108.421 73.3936 112.032 72.6093 116.617 73.1323C120.653 73.5927 124.328 73.2741 127.001 72.5316C128.343 72.159 129.347 71.7029 130.006 71.2523C130.661 70.8041 130.777 70.5032 130.789 70.464C130.788 70.4592 130.787 70.4513 130.783 70.4402C130.765 70.3874 130.701 70.2376 130.487 70.0022C130.038 69.5075 129.113 68.8355 127.432 68.1039C124.742 66.9331 120.521 65.7808 114.355 64.8486C106.129 68.8345 98.4662 73.7994 91.5171 79.5919C92.9591 80.5179 94.3872 81.6223 95.4289 83.0443C97.0044 85.1948 97.5593 87.8555 96.6931 91.1718C95.7939 94.6147 93.3768 97.1246 90.7601 99.0926C88.7814 100.581 86.4716 101.909 84.3528 103.127L84.3524 103.127L84.3508 103.128C83.7026 103.5 83.0723 103.863 82.4748 104.216C79.7674 105.818 77.7418 107.232 76.6495 108.78C76.1394 109.503 75.8689 110.209 75.8136 110.96C75.7577 111.719 75.9106 112.679 76.495 113.919C77.6911 116.455 79.1117 117.547 80.5126 118.192C81.2657 118.539 82.0615 118.777 82.9528 119.014C83.1119 119.057 83.2783 119.1 83.4498 119.145L83.4499 119.145C84.1792 119.334 85.0025 119.548 85.764 119.822C86.7451 120.174 87.7825 120.674 88.7163 121.505C89.6645 122.349 90.407 123.446 90.9262 124.854C91.9272 127.569 92.1148 131.498 91.4518 137.31C90.7662 143.32 88.9099 147.851 86.008 150.738C83.0332 153.698 79.1938 154.695 75.1774 154.038C68.2163 152.9 60.7126 146.856 54.7836 137.586C53.3204 143.283 52.2952 149.155 51.7458 155.165C54.6066 156.225 57.2408 157.231 59.577 158.233C63.1672 159.772 66.2584 161.384 68.4881 163.324C70.7818 165.319 72.2701 167.76 72.3639 170.848C72.4538 173.81 71.2429 177.011 69.0019 180.567C67.9219 182.281 67.0591 183.542 66.3491 184.394C65.9961 184.818 65.6187 185.217 65.2126 185.527C64.8299 185.82 64.2057 186.201 63.3928 186.224C62.4609 186.251 61.7661 185.802 61.3403 185.349C60.9671 184.951 60.7401 184.495 60.6038 184.189C60.4453 183.834 60.2552 183.292 60.0905 182.824C60.0085 182.59 59.9328 182.375 59.8705 182.209C59.3705 180.88 58.7666 179.806 57.6495 179.197C56.7233 178.692 55.0715 178.312 52.0843 178.965C53.1687 187.971 55.3244 196.647 58.4202 204.863C58.879 205 59.3304 205.134 59.7731 205.262C63.7536 206.414 67.257 207.223 70.2255 207.286C72.7174 207.338 74.6534 206.863 76.1544 205.756C76.0445 203.886 75.9895 201.99 75.9895 200.066C75.9895 174.657 85.9068 154.289 105.741 138.961ZM76.5533 210.46C76.9666 214.169 77.6071 217.768 78.475 221.256C76.1584 220.969 73.9384 220.632 71.7844 220.305L71.7841 220.305L71.7839 220.305C70.4248 220.099 69.092 219.897 67.7779 219.713C66.879 219.588 65.9899 219.472 65.1156 219.372C63.4242 216.307 61.8727 213.153 60.4695 209.921C63.8348 210.832 67.1251 211.519 70.1351 211.583C72.3864 211.63 74.5736 211.329 76.5533 210.46ZM79.7315 225.73C80.826 229.216 82.1605 232.586 83.7351 235.839C85.264 238.977 86.9657 241.978 88.8401 244.843C88.2414 245.508 87.6151 246.189 86.9562 246.887C86.883 246.964 86.8079 247.04 86.7308 247.115C79.4648 240.323 73.1061 232.573 67.8563 224.065C68.8678 224.211 69.9247 224.371 71.0163 224.536L71.0165 224.536L71.0183 224.537L71.0205 224.537C73.6032 224.928 76.3799 225.349 79.2094 225.672C79.3846 225.692 79.5586 225.711 79.7315 225.73ZM168.096 230.304C166.443 227.651 165.442 225.82 164.98 224.461C164.712 223.673 164.688 223.215 164.723 222.951C164.752 222.74 164.831 222.535 165.092 222.258C165.391 221.941 165.907 221.558 166.786 221.089C167.655 220.624 168.763 220.135 170.168 219.559L168.537 215.582C167.105 216.17 165.831 216.726 164.761 217.298C163.701 217.864 162.723 218.506 161.965 219.31C161.168 220.155 160.627 221.167 160.464 222.377C160.308 223.534 160.521 224.7 160.911 225.845C161.153 226.556 161.486 227.323 161.903 228.153C159.838 227.035 158.004 225.554 156.401 223.711C152.392 219.023 150.388 213.01 150.388 205.672C150.34 198.255 152.449 191.445 156.714 185.242C156.883 185.367 157.054 185.492 157.227 185.617C161.419 188.622 167.313 191.451 174.895 193.832C176.727 194.407 178.488 194.957 180.175 195.484L180.182 195.486L180.192 195.489L180.194 195.49L180.195 195.49C185.369 197.107 189.854 198.509 193.614 199.761C198.645 201.437 202.187 202.787 204.274 203.95C204.906 204.301 205.311 204.587 205.561 204.796C205.535 204.816 205.507 204.836 205.479 204.856H182.083V219.634C182.083 223.575 182.016 226.802 181.88 229.316C179.841 230.267 176.92 230.743 173.115 230.743C171.349 230.743 169.676 230.596 168.096 230.304ZM234.468 215.861V204.653C233.856 204.721 231.648 204.755 227.843 204.755L212.25 204.856H210.127C210.127 204.802 210.127 204.748 210.124 204.693C210.093 203.905 209.798 203.228 209.424 202.685C208.726 201.672 207.576 200.87 206.366 200.195C203.878 198.809 199.968 197.348 194.972 195.684C191.17 194.417 186.628 192.998 181.44 191.377C179.755 190.85 178.001 190.302 176.183 189.731C168.887 187.441 163.444 184.786 159.732 182.124C159.595 182.026 159.46 181.928 159.329 181.83C160.512 180.436 161.812 179.075 163.229 177.747C171.858 169.662 183.782 165.619 199.001 165.619C201.368 165.619 203.8 165.742 206.298 165.987C205.858 166.35 205.442 166.751 205.057 167.194C203.688 168.772 202.808 170.771 202.528 173.231C201.948 178.317 204.293 181.917 207.729 184.473C211.033 186.932 215.5 188.56 219.641 189.939C220.39 190.189 221.129 190.43 221.851 190.666C225.281 191.788 228.367 192.797 230.722 194.048C233.585 195.569 234.429 196.931 234.253 198.479C234.113 199.706 234.392 200.913 235.224 201.888C236.001 202.8 237.07 203.284 238.089 203.545C240.09 204.058 242.719 203.92 245.46 203.479C251.044 202.58 258.197 200.228 264.466 197.435C266.8 196.395 269.039 195.282 271.051 194.143C269.632 199.503 267.824 204.706 265.66 209.719C264.367 209.693 263.097 209.681 261.853 209.685C255.73 209.705 250.045 210.111 245.107 211.256C241.068 212.193 237.439 213.645 234.468 215.861ZM234.468 251.389V221.627C234.827 221.269 235.193 220.911 235.565 220.553C238.076 218.133 241.592 216.483 246.078 215.443C250.565 214.402 255.887 214.002 261.867 213.983C262.476 213.981 263.09 213.983 263.709 213.988C256.718 228.467 246.697 241.209 234.468 251.389ZM91.3565 248.465C93.399 251.238 95.6177 253.871 98.0125 256.365C95.2197 254.364 92.523 252.237 89.9306 249.994C89.9809 249.942 90.0307 249.891 90.0801 249.838C90.5194 249.373 90.9445 248.915 91.3565 248.465ZM214.132 167.118C218.111 167.866 222.24 168.895 226.519 170.205V165.394C226.619 165.372 226.719 165.349 226.818 165.325C228.371 164.954 230.001 164.361 231.208 163.223C232.538 161.969 233.127 160.274 232.936 158.28C232.757 156.415 231.905 154.297 230.485 151.872C229.131 149.561 227.822 147.725 226.519 146.348V120.98C226.411 120.98 225.839 120.79 224.802 120.409C224.771 120.073 224.732 119.738 224.688 119.406C224.49 117.907 224.15 116.276 223.817 114.685C223.648 113.875 223.481 113.076 223.337 112.31C222.885 109.924 222.574 107.554 222.729 105.135C222.814 103.789 223.611 102.374 225.326 100.903C227.036 99.4362 229.451 98.1011 232.261 96.9333C237.373 94.8088 243.404 93.3958 247.813 92.6831C248.858 93.8994 249.877 95.1384 250.87 96.3993C250.682 96.5118 250.495 96.6251 250.309 96.7391C244.753 100.146 242.162 105.658 242.788 110.874C243.42 116.138 247.283 120.699 253.719 122.18C257.533 123.058 261.893 123.71 266.808 123.976C269.876 131.643 272.119 139.73 273.427 148.126C272.789 149.077 272.125 149.968 271.452 150.776C270.199 152.281 268.969 153.435 267.881 154.167C266.741 154.934 266.026 155.061 265.704 155.024C264.356 154.871 262.786 153.846 260.873 151.916C259.698 150.731 258.621 149.458 257.502 148.134L257.501 148.134L257.501 148.134L257.501 148.133L257.501 148.133C256.78 147.281 256.041 146.408 255.246 145.522C253.421 143.489 251.22 141.305 248.711 140.571C247.344 140.172 245.889 140.198 244.444 140.842C243.053 141.463 241.838 142.582 240.743 144.075C236.203 150.267 236.943 159.444 242.047 167.166C247.219 174.989 256.966 181.604 271.139 183.221C271.974 183.316 272.693 183.432 273.307 183.562C273.054 185.117 272.768 186.662 272.452 188.195C271.944 188.555 271.386 188.926 270.779 189.306C268.514 190.724 265.731 192.166 262.717 193.509C256.667 196.205 249.882 198.414 244.777 199.236C242.174 199.655 240.27 199.667 239.157 199.382C238.747 199.277 238.573 199.163 238.516 199.118C238.514 199.09 238.514 199.041 238.523 198.966C239.016 194.642 235.993 191.981 232.738 190.252C230.022 188.81 226.488 187.657 223.058 186.538L223.058 186.538L223.056 186.537C222.363 186.311 221.675 186.087 220.999 185.861C216.805 184.465 212.972 183.017 210.295 181.025C207.75 179.131 206.434 176.906 206.798 173.718C206.989 172.042 207.552 170.877 208.303 170.012C209.072 169.126 210.143 168.436 211.517 167.896C212.332 167.576 213.209 167.324 214.132 167.118ZM220.262 118.872C220.095 117.881 219.884 116.876 219.658 115.8L219.658 115.8L219.658 115.798L219.657 115.796C219.48 114.952 219.295 114.066 219.114 113.108C218.637 110.59 218.252 107.81 218.439 104.862C218.627 101.913 220.343 99.5144 222.528 97.6403C224.719 95.761 227.594 94.2186 230.611 92.9645C235.112 91.0941 240.193 89.759 244.434 88.9243C235.148 79.0522 224.088 70.8691 211.762 64.885C213.118 68.7752 214.86 73.1652 217.352 78.0163C220.005 83.183 220.372 87.8877 219.26 91.9479C218.161 95.9603 215.677 99.1362 212.968 101.423C210.274 103.698 207.226 105.206 204.77 105.813C203.591 106.105 202.283 106.256 201.157 105.96C200.567 105.805 199.86 105.481 199.331 104.814C198.769 104.104 198.612 103.265 198.699 102.502C198.971 100.123 199.422 96.0732 198.208 91.5464C197.012 87.0876 194.164 82.0426 187.579 77.7543C181.626 73.8777 175.844 75.977 172.354 79.7545C170.589 81.6653 169.584 83.8445 169.431 85.6267C169.289 87.292 169.857 88.5086 171.256 89.245C178.639 93.1304 190.2 100.976 196.333 115.219C205.715 115.712 213.691 116.93 220.262 118.872ZM191.514 115.032C189.806 114.989 188.055 114.967 186.262 114.967C184.926 114.967 183.6 114.98 182.283 115.007C180.536 112.682 178.112 110.642 174.86 109.092C170.566 107.046 166.866 106.548 164.043 108.21C161.253 109.853 160.215 113.09 159.895 116.214C159.872 116.434 159.853 116.658 159.836 116.884C158.681 117.061 157.536 117.251 156.399 117.453C156.385 117.22 156.367 116.991 156.345 116.764C156.137 114.656 155.312 112.965 154.012 111.663C152.755 110.404 151.161 109.615 149.56 109.068C147.958 108.52 146.204 108.168 144.53 107.872C144.002 107.779 143.487 107.692 142.982 107.606C141.828 107.411 140.725 107.225 139.644 106.993C137.631 106.561 135.982 105.614 134.898 103.948C133.794 102.25 133.075 99.4987 133.58 95.0737C134.104 90.4822 135.713 88.2023 137.564 86.8231C139.443 85.4237 141.752 84.7806 144.461 84.0258C144.662 83.9698 144.865 83.9133 145.07 83.8557C147.836 83.0805 151.134 82.0954 153.441 79.4972C155.839 76.7961 156.815 72.8133 156.208 66.9113C155.606 61.0594 154.047 57.3007 151.733 54.9313C151.532 54.7246 151.326 54.5309 151.118 54.3494C155.029 53.9353 159 53.7229 163.021 53.7229C178.414 53.7229 193.08 56.8352 206.423 62.4649C207.973 67.2938 210.065 73.2354 213.528 79.9797C215.742 84.2899 215.915 87.8926 215.115 90.8127C214.302 93.7805 212.424 96.2575 210.196 98.139C207.954 100.032 205.491 101.208 203.738 101.641C203.504 101.699 203.292 101.741 203.103 101.77C203.366 99.1483 203.588 95.0149 202.359 90.433C200.899 84.9913 197.432 79.0422 189.924 74.1529C181.785 68.8519 173.728 71.933 169.197 76.8383C166.952 79.2688 165.402 82.3067 165.149 85.2602C164.887 88.3305 166.063 91.3684 169.255 93.0482C175.891 96.5409 185.751 103.232 191.514 115.032ZM164.213 116.277C164.529 113.767 165.309 112.452 166.224 111.914C167.151 111.368 169.101 111.109 173.011 112.972C174.391 113.63 175.567 114.383 176.565 115.208C172.34 115.422 168.223 115.778 164.213 116.277ZM226.519 153.61C226.604 153.752 226.69 153.896 226.776 154.045C228.072 156.256 228.566 157.737 228.658 158.69C228.737 159.512 228.52 159.851 228.259 160.096C227.95 160.388 227.406 160.687 226.519 160.957V153.61ZM56.4074 131.898C62.4483 112.693 73.5349 95.7249 88.1131 82.547C89.8729 83.5864 91.1699 84.5032 91.9619 85.5842C92.6963 86.5866 93.1085 87.8889 92.5348 90.0858C91.994 92.1562 90.4759 93.9286 88.1767 95.6579C86.4303 96.9714 84.4505 98.1102 82.3848 99.2985L82.384 99.299C81.6925 99.6967 80.9914 100.1 80.2863 100.517C77.6307 102.089 74.8269 103.909 73.138 106.302C72.2574 107.549 71.6494 108.99 71.5274 110.644C71.4061 112.29 71.7773 113.991 72.6076 115.752C74.2409 119.215 76.4081 121.034 78.7153 122.096C79.8162 122.603 80.9046 122.917 81.8478 123.168C82.0631 123.225 82.2667 123.278 82.461 123.329L82.4611 123.329L82.4614 123.329C83.1685 123.513 83.7509 123.665 84.3118 123.867C84.9863 124.109 85.4752 124.374 85.8587 124.715C86.2277 125.044 86.5934 125.527 86.8937 126.341C87.5316 128.071 87.8277 131.159 87.1816 136.823C86.5581 142.289 84.9352 145.743 82.9767 147.691C81.0911 149.567 78.6888 150.257 75.871 149.797C69.9908 148.835 62.42 142.794 56.5034 132.071C56.4716 132.013 56.4396 131.956 56.4074 131.898ZM51.2773 165.467C51.2773 163.51 51.3276 161.565 51.427 159.633C53.7912 160.517 55.9466 161.352 57.8834 162.183C61.3815 163.682 63.9621 165.083 65.6676 166.566C67.3092 167.994 68.0197 169.386 68.068 170.978C68.1202 172.695 67.4164 175.021 65.3659 178.275C64.7607 179.236 64.2616 179.992 63.8488 180.579C63.2501 179.015 62.1716 176.768 59.7075 175.424C57.6793 174.317 55.0531 174.001 51.6506 174.667C51.4034 171.633 51.2773 168.564 51.2773 165.467ZM270.28 157.733C271.614 156.836 272.942 155.603 274.201 154.173C274.574 157.887 274.765 161.654 274.765 165.467C274.765 170.15 274.476 174.767 273.917 179.3C273.212 179.16 272.448 179.044 271.626 178.951C258.577 177.462 250.029 171.447 245.633 164.796C241.168 158.043 241.066 150.903 244.209 146.616C245.036 145.489 245.712 144.983 246.195 144.767C246.625 144.576 247.024 144.556 247.505 144.696C248.692 145.043 250.155 146.285 252.048 148.393C252.66 149.075 253.328 149.862 254.024 150.682C255.247 152.124 256.56 153.671 257.821 154.942C259.817 156.956 262.295 158.961 265.217 159.295C267.03 159.501 268.8 158.729 270.28 157.733ZM254.683 117.992C257.702 118.687 261.113 119.236 264.922 119.542C261.773 112.567 257.93 105.973 253.479 99.8485C253.17 100.03 252.861 100.215 252.555 100.403C248.288 103.02 246.648 106.973 247.055 110.362C247.456 113.704 249.889 116.889 254.683 117.992ZM62.5964 182.117C62.5937 182.119 62.5923 182.12 62.5923 182.12C62.5924 182.12 62.5958 182.118 62.6027 182.113L62.6046 182.111C62.6011 182.113 62.5984 182.115 62.5964 182.117ZM238.522 199.153C238.521 199.152 238.52 199.147 238.518 199.137C238.523 199.147 238.523 199.154 238.522 199.153Z" fill="#006838"/>
<path d="M156.386 23.2668C156.665 12.5405 161.179 4.07114 162.477 0.403713C176.286 21.6376 168.296 41.3792 167.704 40.6421C167.113 39.905 162.908 41.4612 164.349 34.4479C165.341 29.6196 162.174 26.366 162.808 23.9705C161.621 25.2597 162.32 29.2505 163.094 33.638C163.868 38.0256 162.496 39.7726 161.874 40.6756C160.577 39.5623 156.107 33.993 156.386 23.2668Z" fill="#006838"/>
<path d="M242.969 50.0898C251.011 42.9862 260.286 40.5202 263.855 38.972C257.72 63.5466 237.825 71.1476 237.961 70.2124C238.098 69.2772 234.094 67.2598 240.21 63.5363C244.42 60.9729 244.644 56.4379 246.83 55.2704C245.077 55.2798 242.632 58.5097 239.947 62.0657C237.263 65.6216 235.05 65.8078 233.965 65.9678C233.896 64.2596 234.928 57.1933 242.969 50.0898Z" fill="#006838"/>
<path d="M26.2003 205.082C15.689 207.236 6.4181 204.755 2.55205 204.32C20.1121 186.066 41.1494 189.384 40.5652 190.127C39.981 190.87 42.4479 194.613 35.2904 194.796C30.3629 194.922 27.9101 198.743 25.4331 198.667C26.9574 199.531 30.6868 197.948 34.7855 196.202C38.8842 194.455 40.8963 195.396 41.9165 195.798C41.1256 197.313 36.7116 202.927 26.2003 205.082Z" fill="#006838"/>
<path d="M298.578 120.052C309.274 119.202 318.171 122.801 321.954 123.706C302.289 139.67 281.817 133.799 282.488 133.133C283.159 132.467 281.17 128.45 288.296 129.145C293.201 129.624 296.104 126.133 298.553 126.512C297.146 125.467 293.251 126.581 288.969 127.812C284.687 129.043 282.806 127.862 281.842 127.339C282.813 125.932 287.882 120.901 298.578 120.052Z" fill="#006838"/>
<path d="M22.0901 135.692C11.7153 132.954 4.51067 126.614 1.24 124.507C25.0799 115.951 42.4555 128.266 41.6022 128.672C40.7488 129.078 41.2966 133.528 34.8025 130.513C30.3316 128.437 26.437 130.772 24.2515 129.603C25.2333 131.055 29.2777 131.293 33.7257 131.548C38.1737 131.804 39.5586 133.54 40.2944 134.353C38.9127 135.36 32.4648 138.429 22.0901 135.692Z" fill="#006838"/>
<path d="M305.794 190.559C316.39 192.244 324.194 197.831 327.659 199.599C304.796 210.501 286.274 199.987 287.083 199.498C287.891 199.008 286.9 194.636 293.664 196.985C298.32 198.602 301.961 195.89 304.253 196.833C303.131 195.487 299.083 195.655 294.631 195.847C290.18 196.038 288.628 194.449 287.815 193.714C289.089 192.574 295.197 188.874 305.794 190.559Z" fill="#006838"/>
<path d="M63.6654 63.0486C55.3157 56.3097 51.3317 47.5786 49.2077 44.319C74.4627 46.2535 85.2874 64.5947 84.3425 64.6167C83.3976 64.6386 82.0791 68.9234 77.3842 63.5178C74.1521 59.7963 69.6436 60.3349 68.1266 58.3753C68.4293 60.1015 72.0231 61.9718 75.9783 64.0228C79.9334 66.0738 80.4876 68.2248 80.8269 69.2673C79.1544 69.6213 72.0151 69.7874 63.6654 63.0486Z" fill="#006838"/>
</svg>
