<svg width="840" height="230" viewBox="0 0 840 230" fill="none" xmlns="http://www.w3.org/2000/svg">
<path fill-rule="evenodd" clip-rule="evenodd" d="M105.06 53.483C110.869 51.1451 116.958 49.3545 123.261 48.1751L123.5 48.205C123.853 48.249 124.188 48.2909 124.465 48.3314C126.157 48.5789 127.572 48.9832 128.729 50.1683C129.909 51.3769 131.086 53.6778 131.564 58.323C132.038 62.9248 131.184 65.135 130.087 66.3701C128.912 67.6941 127.12 68.3302 124.618 69.0317C124.415 69.0886 124.207 69.1459 123.995 69.2043C121.781 69.8151 119.113 70.5509 116.899 72.2002C114.329 74.1147 112.522 77.1016 111.974 81.9078C111.477 86.268 112.111 89.6112 113.694 92.0439C115.294 94.5038 117.688 95.7637 120.142 96.2902C121.163 96.5092 122.248 96.6926 123.284 96.8675L123.285 96.8677L123.286 96.868C123.704 96.9385 124.113 97.0076 124.506 97.0771C125.928 97.3284 127.208 97.594 128.306 97.9695C129.406 98.3455 130.198 98.7912 130.731 99.3249C131.226 99.8208 131.582 100.475 131.681 101.478C131.711 101.78 131.73 102.095 131.737 102.423C117.634 105.375 105.247 110.605 94.5772 118.115C93.0751 116.481 92.1957 115.104 91.7847 114.009C91.3017 112.721 91.5135 112.012 91.872 111.552C92.3231 110.972 93.358 110.329 95.3515 109.964C97.3006 109.606 99.9167 109.563 103.158 109.933C104.896 110.131 106.345 110.177 107.504 110.036C108.611 109.901 109.793 109.557 110.588 108.649C111.475 107.636 111.482 106.408 111.246 105.445C111.019 104.516 110.515 103.57 109.947 102.679C108.878 101.003 107.23 99.0049 105.501 96.9079L105.501 96.9078L105.501 96.9078L105.14 96.4693C103.241 94.1639 101.214 91.6771 99.4656 89.0949C95.9358 83.8803 93.168 77.5608 92.9557 72.944C92.8506 70.6608 93.3793 69.1311 94.3454 68.2256C95.3077 67.3234 97.1357 66.6364 100.561 67.0271C104.462 67.4721 108.132 67.1836 110.971 66.3951C112.386 66.0021 113.667 65.4645 114.678 64.7731C115.662 64.0998 116.593 63.1362 116.887 61.8343C117.204 60.4286 116.673 59.1349 115.748 58.1165C114.859 57.137 113.521 56.2971 111.833 55.5624C110.107 54.8111 107.87 54.1089 105.06 53.483ZM91.5653 120.334C90.0038 118.587 88.8975 116.909 88.3001 115.316C87.4927 113.164 87.5782 111.01 88.9344 109.266C90.1979 107.642 92.2949 106.74 94.6803 106.303C97.11 105.857 100.12 105.84 103.58 106.235C105.194 106.419 106.313 106.432 107.055 106.341C107.308 106.311 107.485 106.272 107.606 106.237C107.506 105.903 107.265 105.394 106.81 104.681C105.867 103.205 104.358 101.373 102.551 99.18L102.551 99.1797L102.267 98.8356C100.375 96.5382 98.2422 93.9268 96.3836 91.1811C92.7005 85.7401 89.4964 78.736 89.2379 73.115C89.1074 70.2794 89.7185 67.4616 91.8 65.5103C93.8852 63.5556 97.0125 62.8765 100.983 63.3294C104.478 63.728 107.66 63.4521 109.975 62.8092C111.137 62.4865 112.006 62.0916 112.577 61.7013C113.144 61.3132 113.245 61.0526 113.255 61.0187C113.255 61.0145 113.253 61.0077 113.25 60.9981C113.235 60.9524 113.178 60.8226 112.993 60.6188C112.604 60.1904 111.803 59.6085 110.348 58.9749C108.018 57.9611 104.364 56.9633 99.0245 56.1561C91.9014 59.6078 85.2654 63.9072 79.2478 68.9233C80.4964 69.7251 81.7328 70.6815 82.6348 71.9127C83.9991 73.7749 84.4796 76.0789 83.7295 78.9507C82.9508 81.9321 80.8577 84.1055 78.5918 85.8098C76.8783 87.0985 74.8782 88.2483 73.0434 89.303C72.4815 89.626 71.9351 89.9401 71.4172 90.2465C69.0726 91.6337 67.3186 92.8581 66.3727 94.1985C65.931 94.8243 65.6968 95.4365 65.6489 96.0862C65.6004 96.7434 65.7328 97.5752 66.2389 98.6484C67.2747 100.845 68.5048 101.79 69.718 102.349C70.3701 102.649 71.0593 102.856 71.8311 103.061C71.9688 103.098 72.1128 103.135 72.2613 103.174C72.893 103.338 73.606 103.523 74.2654 103.76C75.115 104.065 76.0134 104.498 76.822 105.218C77.6431 105.949 78.2861 106.899 78.7356 108.118C79.6024 110.469 79.7649 113.871 79.1908 118.904C78.5971 124.109 76.9897 128.032 74.4767 130.532C71.9007 133.095 68.576 133.959 65.0979 133.39C59.0702 132.404 52.5725 127.171 47.4384 119.144C46.1715 124.077 45.2837 129.162 44.808 134.366C47.285 135.284 49.5658 136.155 51.5887 137.022C54.6976 138.355 57.3745 139.751 59.3053 141.431C61.2916 143.158 62.5804 145.273 62.6615 147.946C62.7394 150.512 61.6908 153.283 59.7503 156.363C58.815 157.847 58.0679 158.939 57.453 159.677C57.1474 160.044 56.8205 160.389 56.4689 160.658C56.1374 160.911 55.5969 161.242 54.893 161.262C54.0861 161.285 53.4844 160.896 53.1157 160.504C52.7924 160.159 52.5959 159.764 52.4779 159.5C52.3406 159.192 52.176 158.723 52.0334 158.317L52.0334 158.317L52.0332 158.316C51.9623 158.114 51.8968 157.928 51.8429 157.785C51.4099 156.634 50.8869 155.704 49.9196 155.176C49.1176 154.739 47.6874 154.41 45.1011 154.975C46.0402 162.774 47.9069 170.288 50.5878 177.402C50.9848 177.521 51.3754 177.636 51.7585 177.747C55.2055 178.745 58.2393 179.446 60.8098 179.5C62.9684 179.546 64.6452 179.133 65.9452 178.174C65.85 176.556 65.8024 174.914 65.8024 173.248C65.8024 151.246 74.39 133.608 91.5653 120.334ZM66.2905 182.248C66.6484 185.461 67.2032 188.577 67.9547 191.598C65.948 191.349 64.025 191.057 62.1591 190.774L62.1579 190.774L62.1575 190.774C60.9813 190.596 59.8277 190.421 58.6903 190.262C57.9121 190.153 57.1425 190.053 56.3856 189.966C54.921 187.312 53.5775 184.581 52.3624 181.782C55.2764 182.571 58.1253 183.166 60.7315 183.221C62.6815 183.262 64.5759 183.001 66.2905 182.248ZM69.0428 195.472C69.9906 198.491 71.1462 201.409 72.5097 204.226C73.8335 206.943 75.3069 209.542 76.9299 212.022C76.4113 212.598 75.8686 213.188 75.2978 213.793C75.2345 213.859 75.1696 213.925 75.103 213.99C68.8111 208.109 63.305 201.397 58.759 194.03C59.6347 194.156 60.5497 194.295 61.4947 194.438L61.4951 194.438L61.4958 194.438C63.7329 194.777 66.1383 195.142 68.5894 195.422C68.7416 195.439 68.8927 195.456 69.0428 195.472ZM145.561 199.432C144.129 197.135 143.263 195.549 142.863 194.373C142.63 193.69 142.61 193.294 142.641 193.066C142.665 192.883 142.734 192.705 142.96 192.466C143.219 192.191 143.666 191.859 144.427 191.453C145.179 191.051 146.139 190.627 147.355 190.128L145.943 186.685C144.703 187.193 143.599 187.675 142.673 188.17C141.755 188.66 140.908 189.216 140.252 189.912C139.562 190.644 139.094 191.52 138.952 192.568C138.817 193.571 139.002 194.58 139.339 195.572C139.549 196.187 139.837 196.851 140.197 197.57C138.41 196.601 136.822 195.319 135.435 193.723C131.963 189.664 130.228 184.457 130.228 178.102C130.186 171.68 132.012 165.783 135.706 160.411C135.851 160.52 135.999 160.628 136.149 160.736C139.779 163.338 144.883 165.788 151.449 167.849C153.041 168.349 154.57 168.827 156.035 169.285L156.036 169.285C160.518 170.685 164.402 171.899 167.658 172.984C172.015 174.436 175.082 175.604 176.89 176.611C177.437 176.916 177.787 177.163 178.004 177.344C177.981 177.361 177.958 177.379 177.933 177.396H157.675V190.193C157.675 193.606 157.616 196.4 157.498 198.577C155.733 199.401 153.203 199.813 149.908 199.813C148.378 199.813 146.929 199.686 145.561 199.432ZM203.037 186.925V177.22C202.508 177.279 200.596 177.308 197.301 177.308L183.798 177.396H181.958C181.958 177.35 181.958 177.302 181.956 177.255C181.929 176.572 181.673 175.986 181.349 175.516C180.745 174.638 179.749 173.944 178.701 173.36C176.547 172.16 173.161 170.895 168.835 169.453C165.542 168.356 161.609 167.127 157.115 165.723L157.106 165.72C155.65 165.265 154.135 164.792 152.564 164.298C146.247 162.315 141.533 160.016 138.318 157.711C138.2 157.626 138.084 157.542 137.97 157.457C138.994 156.25 140.12 155.071 141.348 153.921C148.82 146.919 159.146 143.419 172.325 143.419C174.374 143.419 176.48 143.525 178.642 143.737C178.261 144.051 177.901 144.399 177.568 144.783C176.382 146.149 175.62 147.88 175.377 150.011C174.875 154.415 176.906 157.531 179.882 159.745C182.742 161.874 186.611 163.284 190.197 164.478C190.844 164.694 191.482 164.903 192.107 165.107L192.111 165.108L192.111 165.108C195.081 166.08 197.753 166.954 199.793 168.037C202.272 169.354 203.003 170.534 202.85 171.874C202.728 172.936 202.971 173.981 203.691 174.826C204.364 175.615 205.29 176.034 206.172 176.261C207.905 176.705 210.181 176.586 212.555 176.204C217.39 175.425 223.584 173.389 229.013 170.97C231.035 170.069 232.974 169.105 234.716 168.118C233.487 172.761 231.922 177.266 230.048 181.607C228.928 181.585 227.828 181.574 226.751 181.578C221.448 181.595 216.525 181.946 212.249 182.938C208.752 183.749 205.61 185.006 203.037 186.925ZM203.037 217.691V191.917C203.348 191.608 203.665 191.299 203.986 190.989C206.161 188.894 209.205 187.465 213.09 186.563C216.976 185.662 221.584 185.316 226.762 185.299C227.29 185.298 227.822 185.299 228.358 185.304C222.305 197.842 213.627 208.875 203.037 217.691ZM79.1089 215.159C80.8782 217.561 82.8 219.841 84.8744 222.001C82.4553 220.268 80.1194 218.426 77.8739 216.483C77.8959 216.46 77.9178 216.438 77.9397 216.415C77.9609 216.393 77.982 216.371 78.003 216.349C78.3836 215.946 78.752 215.549 79.1089 215.159ZM185.427 144.716C188.873 145.364 192.448 146.256 196.154 147.39V143.224C196.24 143.204 196.326 143.185 196.411 143.164C197.756 142.843 199.168 142.329 200.213 141.344C201.365 140.257 201.875 138.79 201.709 137.063C201.555 135.449 200.817 133.614 199.587 131.514C198.415 129.513 197.282 127.925 196.154 126.732V104.763C196.061 104.763 195.565 104.598 194.666 104.269C194.639 103.977 194.605 103.688 194.567 103.4C194.396 102.102 194.101 100.69 193.813 99.3118L193.813 99.3117C193.667 98.6109 193.522 97.9189 193.397 97.2553C193.006 95.1889 192.737 93.1373 192.87 91.0422C192.945 89.8769 193.634 88.6514 195.12 87.3771C196.6 86.1073 198.692 84.9511 201.125 83.9399C205.552 82.1001 210.775 80.8764 214.593 80.2593C215.498 81.3125 216.38 82.3853 217.24 83.4771C217.077 83.5747 216.915 83.6729 216.753 83.7718C211.942 86.7218 209.699 91.4949 210.241 96.0122C210.788 100.571 214.134 104.52 219.707 105.803C223.009 106.563 226.786 107.127 231.042 107.358C233.699 113.997 235.641 120.999 236.774 128.27C236.221 129.093 235.646 129.865 235.062 130.565C233.977 131.869 232.913 132.868 231.97 133.502C230.983 134.166 230.364 134.276 230.085 134.244C228.918 134.111 227.558 133.223 225.902 131.553C224.884 130.526 223.952 129.424 222.982 128.277L222.981 128.276C222.357 127.539 221.717 126.782 221.029 126.016C219.448 124.255 217.543 122.364 215.37 121.728C214.187 121.382 212.926 121.405 211.675 121.963C210.471 122.5 209.418 123.47 208.471 124.762C204.539 130.124 205.18 138.072 209.6 144.758C214.078 151.532 222.519 157.261 234.792 158.661C235.515 158.743 236.138 158.844 236.67 158.956C236.451 160.303 236.203 161.64 235.929 162.968C235.489 163.279 235.006 163.601 234.48 163.93C232.519 165.158 230.108 166.407 227.498 167.57C222.259 169.904 216.384 171.817 211.963 172.529C209.709 172.892 208.06 172.903 207.097 172.656C206.742 172.564 206.591 172.466 206.542 172.427C206.54 172.403 206.54 172.361 206.547 172.295C206.975 168.551 204.357 166.247 201.538 164.75C199.186 163.5 196.126 162.502 193.156 161.533C192.556 161.337 191.959 161.143 191.372 160.947C187.741 159.738 184.421 158.485 182.103 156.76C179.899 155.12 178.76 153.193 179.075 150.432C179.241 148.981 179.728 147.971 180.378 147.223C181.045 146.455 181.972 145.858 183.162 145.39C183.868 145.113 184.627 144.895 185.427 144.716ZM190.734 102.938C190.589 102.079 190.407 101.209 190.212 100.277C190.058 99.5459 189.897 98.7768 189.74 97.9467C189.328 95.766 188.994 93.359 189.156 90.8056C189.319 88.252 190.805 86.175 192.697 84.5521C194.594 82.9247 197.084 81.5891 199.697 80.5031C203.594 78.8833 207.995 77.7272 211.667 77.0043C203.626 68.4554 194.048 61.3691 183.374 56.1871C184.548 59.5559 186.057 63.3577 188.214 67.5586C190.512 72.0328 190.83 76.1069 189.867 79.6227C188.915 83.0973 186.764 85.8475 184.419 87.8277C182.085 89.798 179.446 91.1035 177.319 91.6294C176.298 91.8819 175.166 92.0132 174.191 91.7565C173.68 91.6221 173.067 91.3414 172.609 90.764C172.122 90.1497 171.987 89.423 172.062 88.7621C172.297 86.7024 172.688 83.1951 171.636 79.2751C170.601 75.4139 168.134 71.0453 162.432 67.3318C157.278 63.9748 152.27 65.7927 149.249 69.0638C147.72 70.7185 146.85 72.6056 146.718 74.1489C146.594 75.591 147.086 76.6445 148.298 77.2821C154.691 80.6467 164.702 87.441 170.013 99.7744C178.137 100.201 185.044 101.256 190.734 102.938ZM165.84 99.6129C164.361 99.5751 162.845 99.5563 161.293 99.5563C160.136 99.5563 158.987 99.5677 157.847 99.5906C156.334 97.5774 154.235 95.8109 151.419 94.4689C147.7 92.6968 144.496 92.2654 142.051 93.7051C139.635 95.128 138.737 97.9309 138.459 100.636C138.439 100.827 138.423 101.021 138.409 101.216C137.408 101.37 136.416 101.534 135.432 101.709C135.42 101.508 135.404 101.309 135.385 101.113C135.205 99.2871 134.491 97.8228 133.365 96.695C132.276 95.6051 130.896 94.9218 129.51 94.4479C128.123 93.9736 126.604 93.6683 125.154 93.4122C124.697 93.3314 124.251 93.2561 123.814 93.1823L123.814 93.1822C122.814 93.0134 121.859 92.8522 120.923 92.6513C119.18 92.2774 117.752 91.4573 116.813 90.0143C115.857 88.544 115.235 86.1614 115.672 82.3296C116.125 78.3535 117.519 76.3793 119.122 75.1849C120.749 73.9732 122.748 73.4162 125.095 72.7626L125.095 72.7625C125.269 72.7141 125.444 72.6651 125.622 72.6153C128.017 71.944 130.873 71.091 132.87 68.841C134.947 66.502 135.792 63.0531 135.266 57.9422C134.745 52.8748 133.395 49.6199 131.392 47.5681C131.217 47.3892 131.039 47.2215 130.859 47.0643C134.246 46.7056 137.685 46.5217 141.167 46.5217C154.496 46.5217 167.196 49.2167 178.751 54.0915C180.093 58.2732 181.904 63.4185 184.903 69.2589C186.82 72.9913 186.97 76.1111 186.277 78.6397C185.574 81.2097 183.947 83.3547 182.018 84.984C180.076 86.6231 177.943 87.6412 176.426 88.0165C176.223 88.0667 176.039 88.1034 175.875 88.1286C176.103 85.858 176.295 82.2786 175.231 78.311C173.967 73.5986 170.965 68.447 164.463 64.2131C157.415 59.6227 150.438 62.2908 146.515 66.5385C144.571 68.6433 143.228 71.2739 143.009 73.8315C142.782 76.4903 143.801 79.1209 146.565 80.5756C152.311 83.6001 160.849 89.3944 165.84 99.6129ZM142.198 100.69C142.472 98.5174 143.148 97.3787 143.94 96.9121C144.742 96.4395 146.431 96.2151 149.818 97.8287C151.013 98.3982 152.03 99.0504 152.895 99.7649C149.237 99.9501 145.671 100.259 142.198 100.69ZM196.154 133.021C196.227 133.143 196.301 133.268 196.376 133.396C197.497 135.31 197.926 136.593 198.005 137.418C198.073 138.131 197.885 138.423 197.66 138.636C197.392 138.888 196.921 139.148 196.154 139.381V133.021ZM48.8444 114.218C54.0755 97.5879 63.676 82.8939 76.3002 71.4823C77.8238 72.3822 78.9468 73.1761 79.6325 74.1121C80.2685 74.9802 80.6255 76.1079 80.1286 78.0102C79.6603 79.8031 78.3457 81.338 76.3547 82.8354C74.8424 83.9729 73.128 84.9591 71.3392 85.9881L71.3392 85.9881L71.3391 85.9881C70.7402 86.3327 70.1328 86.682 69.522 87.0435C67.2223 88.4041 64.7944 89.9803 63.3319 92.0525C62.5694 93.133 62.0428 94.3801 61.9372 95.8126C61.8322 97.2377 62.1536 98.711 62.8726 100.236C64.287 103.235 66.1636 104.81 68.1615 105.73C69.1149 106.168 70.0574 106.44 70.8742 106.658C71.0606 106.707 71.237 106.753 71.4053 106.797C72.0177 106.957 72.5221 107.088 73.0079 107.263C73.592 107.473 74.0154 107.702 74.3474 107.998C74.667 108.282 74.9837 108.7 75.2437 109.406C75.7961 110.904 76.0525 113.578 75.493 118.483C74.9531 123.216 73.5478 126.206 71.8518 127.894C70.219 129.518 68.1386 130.116 65.6985 129.717C60.6066 128.884 54.0506 123.654 48.9271 114.367C48.8997 114.318 48.8722 114.268 48.8444 114.218ZM44.4023 143.287C44.4023 141.592 44.4459 139.908 44.5319 138.235C46.5789 139 48.4452 139.724 50.1222 140.443C53.1513 141.742 55.386 142.954 56.8629 144.239C58.2844 145.475 58.8997 146.68 58.9415 148.059C58.9867 149.546 58.3772 151.561 56.6016 154.378C56.0775 155.21 55.6453 155.864 55.2878 156.373C54.7694 155.019 53.8355 153.073 51.7017 151.909C49.9455 150.951 47.6716 150.677 44.7256 151.253C44.5115 148.626 44.4023 145.969 44.4023 143.287ZM234.048 136.59C235.203 135.812 236.354 134.744 237.444 133.506C237.767 136.722 237.932 139.985 237.932 143.287C237.932 147.343 237.682 151.341 237.198 155.266C236.587 155.145 235.926 155.044 235.213 154.963C223.913 153.674 216.512 148.465 212.704 142.705C208.838 136.858 208.75 130.675 211.472 126.963C212.187 125.987 212.773 125.548 213.192 125.362C213.563 125.196 213.909 125.179 214.326 125.301C215.353 125.601 216.621 126.676 218.26 128.502C218.79 129.092 219.368 129.773 219.971 130.484L219.971 130.484C221.03 131.732 222.167 133.072 223.259 134.173C224.988 135.917 227.133 137.653 229.663 137.942C231.233 138.121 232.766 137.452 234.048 136.59ZM220.541 102.176C223.156 102.777 226.11 103.253 229.408 103.518C226.682 97.4778 223.354 91.7677 219.5 86.464C219.231 86.6216 218.964 86.7818 218.699 86.9445C215.004 89.2104 213.584 92.6338 213.936 95.5686C214.284 98.4623 216.39 101.22 220.541 102.176ZM54.2088 157.701C54.1962 157.711 54.197 157.709 54.2106 157.7L54.2088 157.701ZM206.547 172.457C206.547 172.457 206.545 172.453 206.544 172.443C206.547 172.452 206.548 172.457 206.547 172.457Z" fill="#006838"/>
<path d="M135.424 20.1479C135.665 10.8595 139.574 3.52542 140.698 0.349597C152.656 18.7371 145.737 35.8325 145.225 35.1942C144.712 34.5559 141.072 35.9035 142.319 29.8303C143.178 25.6492 140.436 22.8318 140.985 20.7573C139.957 21.8737 140.562 25.3296 141.232 29.129C141.902 32.9284 140.715 34.4413 140.176 35.2232C139.053 34.2592 135.182 29.4363 135.424 20.1479Z" fill="#006838"/>
<path d="M210.402 43.3754C217.366 37.224 225.397 35.0886 228.488 33.748C223.175 55.0284 205.947 61.6105 206.065 60.8007C206.184 59.9908 202.717 58.2439 208.012 55.0195C211.658 52.7997 211.852 48.8726 213.745 47.8616C212.227 47.8697 210.109 50.6667 207.785 53.746C205.461 56.8253 203.544 56.9865 202.605 57.125C202.545 55.6459 203.438 49.5268 210.402 43.3754Z" fill="#006838"/>
<path d="M22.687 177.591C13.5847 179.457 5.55653 177.308 2.2087 176.932C17.4149 161.125 35.6322 163.998 35.1264 164.641C34.6205 165.284 36.7567 168.526 30.5586 168.684C26.2916 168.793 24.1676 172.102 22.0226 172.036C23.3426 172.785 26.5721 171.414 30.1214 169.902C33.6707 168.389 35.4131 169.204 36.2965 169.552C35.6116 170.864 31.7893 175.725 22.687 177.591Z" fill="#006838"/>
<path d="M258.553 103.959C267.816 103.223 275.52 106.34 278.796 107.124C261.767 120.948 244.039 115.864 244.62 115.287C245.201 114.711 243.478 111.232 249.649 111.834C253.897 112.249 256.411 109.225 258.532 109.554C257.313 108.649 253.94 109.613 250.232 110.679C246.524 111.745 244.895 110.723 244.061 110.27C244.901 109.051 249.291 104.695 258.553 103.959Z" fill="#006838"/>
<path d="M19.129 117.503C10.1449 115.132 3.90603 109.642 1.07378 107.817C21.718 100.408 36.7645 111.072 36.0255 111.424C35.2866 111.776 35.761 115.629 30.1373 113.018C26.2657 111.221 22.8932 113.242 21.0007 112.23C21.8509 113.488 25.3531 113.694 29.2049 113.915C33.0567 114.136 34.2559 115.64 34.8931 116.344C33.6966 117.215 28.113 119.873 19.129 117.503Z" fill="#006838"/>
<path d="M264.804 165.015C273.98 166.475 280.738 171.312 283.738 172.844C263.94 182.284 247.901 173.18 248.601 172.756C249.301 172.332 248.443 168.546 254.3 170.58C258.332 171.98 261.485 169.632 263.47 170.449C262.498 169.283 258.993 169.429 255.138 169.594C251.284 169.76 249.94 168.384 249.235 167.747C250.338 166.76 255.628 163.556 264.804 165.015Z" fill="#006838"/>
<path d="M55.1305 54.597C47.9 48.7615 44.45 41.2007 42.6107 38.3781C64.4804 40.0532 73.8541 55.9359 73.0359 55.9549C72.2176 55.9739 71.0758 59.6844 67.0103 55.0034C64.2114 51.7807 60.3073 52.2471 58.9936 50.5502C59.2557 52.045 62.3678 53.6646 65.7928 55.4406C69.2178 57.2167 69.6977 59.0794 69.9915 59.9822C68.5432 60.2887 62.3609 60.4325 55.1305 54.597Z" fill="#006838"/>
<path d="M393.185 134.639L403.095 134.574C405.513 134.574 406.917 134.553 407.305 134.51V182.571C392.149 185.118 380.058 186.392 371.033 186.392C362.008 186.392 353.544 185.118 345.642 182.571C337.74 179.98 330.896 176.309 325.109 171.559C319.323 166.809 314.789 161.066 311.507 154.33C308.225 147.55 306.585 139.972 306.585 131.595C306.585 115.143 313.127 102.016 326.211 92.2133C339.338 82.4111 356.157 77.51 376.668 77.51C386.729 77.51 394.696 78.5896 400.569 80.7486C401.605 81.1373 402.167 81.3316 402.253 81.3316V112.617C395.905 110.673 390.076 109.702 384.765 109.702C375.092 109.702 367.514 112.271 362.03 117.41C356.546 122.548 353.825 128.464 353.868 135.157C353.868 139.821 355.142 143.642 357.69 146.622C360.281 149.601 363.822 151.091 368.312 151.091C370.731 151.091 372.587 150.789 373.883 150.184C373.969 148.587 374.012 146.536 374.012 144.031V134.639C380.403 134.639 386.794 134.639 393.185 134.639ZM433.999 66.0453C440.347 66.0453 445.054 67.384 448.12 70.0612C451.185 72.6953 452.697 76.0634 452.654 80.1657C452.654 84.2679 450.689 88.0463 446.759 91.5008C442.873 94.9553 437.67 96.6826 431.149 96.6826C421.995 96.6826 416.295 93.919 414.049 88.3917C413.402 86.8372 413.078 85.11 413.078 83.21C413.078 81.31 413.531 79.3236 414.438 77.2509C415.345 75.1782 416.705 73.3214 418.519 71.6805C422.535 67.9237 427.695 66.0453 433.999 66.0453ZM451.553 183.866H414.049V103.354H451.553V183.866ZM502.989 125.247C499.535 125.247 497.808 128.032 497.808 133.603V183.866H459.333V103.354H480.578L489.841 115.92C493.295 111.127 498.067 107.327 504.155 104.52C510.287 101.713 516.009 100.31 521.32 100.31C531.079 100.31 538.808 102.901 544.508 108.082C550.252 113.264 553.123 120.216 553.123 128.939V183.866H514.389V145.003C514.389 131.832 510.589 125.247 502.989 125.247ZM603.977 125.247C600.523 125.247 598.795 128.032 598.795 133.603V183.866H560.321V103.354H581.566L590.828 115.92C594.283 111.127 599.054 107.327 605.143 104.52C611.275 101.713 616.996 100.31 622.308 100.31C632.067 100.31 639.796 102.901 645.496 108.082C651.239 113.264 654.111 120.216 654.111 128.939V183.866H615.377V145.003C615.377 131.832 611.577 125.247 603.977 125.247ZM717.077 126.283C716.213 125.852 715.091 125.636 713.709 125.636C712.37 125.636 710.881 126.046 709.24 126.866C707.599 127.644 705.979 128.723 704.382 130.105C701.014 133.041 698.185 136.604 695.897 140.792C693.608 144.981 692.464 148.846 692.464 152.387C692.464 155.884 693.802 158.238 696.48 159.447C697.429 159.879 698.595 160.095 699.977 160.095C701.359 160.095 702.806 159.684 704.317 158.864C705.828 158 707.34 156.856 708.851 155.431C712.003 152.451 714.767 148.846 717.142 144.614C719.517 140.339 720.704 136.517 720.704 133.149C720.704 129.781 719.495 127.493 717.077 126.283ZM704.511 186.263C692.161 186.263 681.517 182.355 672.579 174.539C663.035 166.248 658.264 155.82 658.264 143.254C658.264 130.645 662.733 120.346 671.672 112.357C680.61 104.326 691.643 100.31 704.77 100.31C717.898 100.31 728.93 104.239 737.869 112.098C746.807 119.914 751.298 130.386 751.342 143.513C751.385 151.933 749.247 159.382 744.929 165.859C740.611 172.337 734.846 177.346 727.635 180.886C720.424 184.427 712.716 186.219 704.511 186.263ZM794.811 127.061L805.823 103.354H836.719L797.014 183.736C796.236 185.42 794.552 186.263 791.961 186.263C789.371 186.263 787.622 185.42 786.715 183.736L744.937 103.354H782.829L794.811 127.061Z" fill="#006838"/>
<path d="M432.482 222.402C430.28 222.402 428.355 221.901 426.708 220.9C425.062 219.899 423.783 218.508 422.87 216.728C421.958 214.926 421.502 212.834 421.502 210.453C421.502 208.05 421.969 205.936 422.904 204.112C423.86 202.265 425.207 200.83 426.942 199.806C428.7 198.761 430.78 198.238 433.183 198.238C435.92 198.238 438.19 198.894 439.992 200.207C441.794 201.52 442.962 203.333 443.496 205.647H438.724C438.368 204.557 437.722 203.711 436.788 203.111C435.853 202.488 434.652 202.176 433.183 202.176C430.847 202.176 429.045 202.922 427.777 204.412C426.508 205.881 425.874 207.906 425.874 210.487C425.874 213.068 426.497 215.07 427.743 216.494C429.011 217.896 430.725 218.597 432.883 218.597C434.997 218.597 436.588 218.03 437.656 216.895C438.746 215.738 439.402 214.225 439.625 212.356H433.717V209.152H443.93V222.001H439.992L439.658 218.931C438.902 220.043 437.956 220.9 436.821 221.501C435.687 222.101 434.24 222.402 432.482 222.402ZM448.284 202.877C447.505 202.877 446.86 202.643 446.348 202.176C445.858 201.709 445.614 201.119 445.614 200.407C445.614 199.695 445.858 199.117 446.348 198.672C446.86 198.204 447.505 197.971 448.284 197.971C449.062 197.971 449.697 198.204 450.186 198.672C450.698 199.117 450.954 199.695 450.954 200.407C450.954 201.119 450.698 201.709 450.186 202.176C449.697 202.643 449.062 202.877 448.284 202.877ZM446.148 222.001V205.447H450.42V222.001H446.148ZM452.876 222.001V205.447H456.648L456.981 208.25C457.493 207.271 458.227 206.493 459.184 205.914C460.163 205.336 461.309 205.046 462.622 205.046C464.669 205.046 466.26 205.692 467.395 206.982C468.529 208.273 469.097 210.164 469.097 212.656V222.001H464.825V213.057C464.825 211.633 464.535 210.542 463.957 209.786C463.378 209.029 462.477 208.651 461.254 208.651C460.052 208.651 459.062 209.074 458.283 209.919C457.527 210.765 457.148 211.944 457.148 213.457V222.001H452.876ZM478.188 217.062C477.387 217.062 476.642 216.973 475.952 216.795L474.717 218.03C475.095 218.23 475.607 218.397 476.252 218.53C476.898 218.664 477.943 218.797 479.39 218.931C481.593 219.131 483.195 219.654 484.196 220.499C485.197 221.345 485.698 222.513 485.698 224.004C485.698 224.983 485.431 225.906 484.897 226.774C484.363 227.664 483.539 228.376 482.427 228.91C481.314 229.466 479.89 229.744 478.155 229.744C475.796 229.744 473.894 229.299 472.448 228.409C471.001 227.542 470.278 226.229 470.278 224.471C470.278 222.98 471.001 221.69 472.448 220.599C472.003 220.399 471.613 220.188 471.279 219.965C470.968 219.743 470.69 219.509 470.445 219.264V218.497L473.349 215.426C472.058 214.291 471.413 212.834 471.413 211.054C471.413 209.942 471.68 208.929 472.214 208.017C472.77 207.105 473.549 206.381 474.55 205.847C475.552 205.313 476.764 205.046 478.188 205.046C479.123 205.046 479.99 205.18 480.792 205.447H487.066V208.05L484.229 208.25C484.674 209.096 484.897 210.031 484.897 211.054C484.897 212.167 484.63 213.179 484.096 214.091C483.562 215.003 482.783 215.727 481.759 216.261C480.758 216.795 479.568 217.062 478.188 217.062ZM478.188 213.791C479.056 213.791 479.768 213.557 480.324 213.09C480.903 212.623 481.192 211.955 481.192 211.087C481.192 210.22 480.903 209.552 480.324 209.085C479.768 208.618 479.056 208.384 478.188 208.384C477.276 208.384 476.542 208.618 475.985 209.085C475.429 209.552 475.151 210.22 475.151 211.087C475.151 211.955 475.429 212.623 475.985 213.09C476.542 213.557 477.276 213.791 478.188 213.791ZM474.183 224.037C474.183 224.86 474.561 225.472 475.318 225.873C476.097 226.296 477.042 226.507 478.155 226.507C479.223 226.507 480.091 226.284 480.758 225.839C481.426 225.417 481.759 224.838 481.759 224.104C481.759 223.503 481.537 223.002 481.092 222.602C480.669 222.201 479.812 221.957 478.522 221.868C477.61 221.801 476.764 221.701 475.985 221.567C475.34 221.923 474.873 222.313 474.584 222.735C474.317 223.158 474.183 223.592 474.183 224.037ZM495.57 222.402C493.902 222.402 492.422 222.046 491.131 221.334C489.841 220.622 488.828 219.62 488.094 218.33C487.36 217.039 486.993 215.549 486.993 213.858C486.993 212.144 487.349 210.62 488.061 209.285C488.795 207.95 489.796 206.915 491.065 206.181C492.355 205.425 493.868 205.046 495.604 205.046C497.228 205.046 498.663 205.402 499.909 206.114C501.155 206.826 502.123 207.805 502.813 209.052C503.525 210.275 503.881 211.644 503.881 213.157C503.881 213.401 503.87 213.657 503.848 213.924C503.848 214.191 503.836 214.469 503.814 214.759H491.232C491.321 216.049 491.766 217.062 492.567 217.796C493.39 218.53 494.38 218.897 495.537 218.897C496.405 218.897 497.128 218.708 497.706 218.33C498.307 217.929 498.752 217.418 499.041 216.795H503.38C503.069 217.84 502.546 218.797 501.812 219.665C501.1 220.51 500.21 221.178 499.142 221.667C498.096 222.157 496.905 222.402 495.57 222.402ZM495.604 208.517C494.558 208.517 493.635 208.818 492.834 209.419C492.033 209.997 491.521 210.887 491.298 212.089H499.542C499.475 210.998 499.075 210.131 498.341 209.485C497.606 208.84 496.694 208.517 495.604 208.517ZM505.471 222.001V205.447H509.276L509.677 208.551C510.278 207.483 511.09 206.637 512.113 206.014C513.159 205.369 514.383 205.046 515.784 205.046V209.552H514.583C513.648 209.552 512.814 209.697 512.08 209.986C511.346 210.275 510.767 210.776 510.344 211.488C509.944 212.2 509.744 213.19 509.744 214.458V222.001H505.471ZM522.752 222.001V198.638H527.024V222.001H522.752ZM529.45 222.001V205.447H533.221L533.555 208.25C534.067 207.271 534.801 206.493 535.758 205.914C536.737 205.336 537.883 205.046 539.195 205.046C541.242 205.046 542.833 205.692 543.968 206.982C545.103 208.273 545.67 210.164 545.67 212.656V222.001H541.398V213.057C541.398 211.633 541.109 210.542 540.53 209.786C539.952 209.029 539.051 208.651 537.827 208.651C536.625 208.651 535.635 209.074 534.857 209.919C534.1 210.765 533.722 211.944 533.722 213.457V222.001H529.45ZM547.753 222.001V205.447H551.524L551.858 208.25C552.37 207.271 553.104 206.493 554.061 205.914C555.04 205.336 556.186 205.046 557.498 205.046C559.545 205.046 561.136 205.692 562.271 206.982C563.406 208.273 563.973 210.164 563.973 212.656V222.001H559.701V213.057C559.701 211.633 559.412 210.542 558.833 209.786C558.255 209.029 557.354 208.651 556.13 208.651C554.929 208.651 553.938 209.074 553.16 209.919C552.403 210.765 552.025 211.944 552.025 213.457V222.001H547.753ZM573.999 222.402C572.397 222.402 570.951 222.035 569.66 221.3C568.392 220.566 567.38 219.554 566.623 218.263C565.889 216.95 565.522 215.437 565.522 213.724C565.522 212.011 565.9 210.509 566.657 209.218C567.413 207.906 568.426 206.882 569.694 206.148C570.984 205.414 572.431 205.046 574.033 205.046C575.612 205.046 577.036 205.414 578.305 206.148C579.595 206.882 580.608 207.906 581.342 209.218C582.098 210.509 582.477 212.011 582.477 213.724C582.477 215.437 582.098 216.95 581.342 218.263C580.608 219.554 579.595 220.566 578.305 221.3C577.014 222.035 575.579 222.402 573.999 222.402ZM573.999 218.697C575.112 218.697 576.08 218.285 576.903 217.462C577.726 216.617 578.138 215.371 578.138 213.724C578.138 212.078 577.726 210.843 576.903 210.019C576.08 209.174 575.123 208.751 574.033 208.751C572.898 208.751 571.919 209.174 571.096 210.019C570.295 210.843 569.894 212.078 569.894 213.724C569.894 215.371 570.295 216.617 571.096 217.462C571.919 218.285 572.887 218.697 573.999 218.697ZM587.951 222.001L581.877 205.447H586.349L590.555 217.963L594.76 205.447H599.232L593.125 222.001H587.951ZM604.621 222.402C603.197 222.402 602.029 222.179 601.117 221.734C600.204 221.267 599.526 220.655 599.081 219.899C598.636 219.142 598.413 218.308 598.413 217.395C598.413 215.86 599.014 214.614 600.216 213.657C601.417 212.701 603.219 212.222 605.622 212.222H609.828V211.822C609.828 210.687 609.505 209.853 608.86 209.319C608.215 208.784 607.414 208.517 606.457 208.517C605.589 208.517 604.832 208.729 604.187 209.152C603.542 209.552 603.141 210.153 602.986 210.954H598.814C598.925 209.752 599.326 208.707 600.015 207.817C600.727 206.927 601.64 206.248 602.752 205.781C603.865 205.291 605.111 205.046 606.49 205.046C608.849 205.046 610.707 205.636 612.064 206.815C613.421 207.995 614.1 209.663 614.1 211.822V222.001H610.462L610.061 219.331C609.572 220.221 608.882 220.955 607.992 221.534C607.124 222.112 606.001 222.402 604.621 222.402ZM605.589 219.064C606.813 219.064 607.758 218.664 608.426 217.863C609.116 217.062 609.55 216.071 609.728 214.892H606.09C604.955 214.892 604.143 215.104 603.653 215.526C603.164 215.927 602.919 216.428 602.919 217.028C602.919 217.674 603.164 218.174 603.653 218.53C604.143 218.886 604.788 219.064 605.589 219.064ZM623.322 222.001C621.586 222.001 620.196 221.578 619.15 220.733C618.104 219.887 617.581 218.386 617.581 216.227V209.018H614.744V205.447H617.581L618.082 201.008H621.853V205.447H626.326V209.018H621.853V216.261C621.853 217.062 622.02 217.618 622.354 217.929C622.71 218.219 623.311 218.363 624.156 218.363H626.226V222.001H623.322ZM630.294 202.877C629.515 202.877 628.87 202.643 628.358 202.176C627.869 201.709 627.624 201.119 627.624 200.407C627.624 199.695 627.869 199.117 628.358 198.672C628.87 198.204 629.515 197.971 630.294 197.971C631.073 197.971 631.707 198.204 632.196 198.672C632.708 199.117 632.964 199.695 632.964 200.407C632.964 201.119 632.708 201.709 632.196 202.176C631.707 202.643 631.073 202.877 630.294 202.877ZM628.158 222.001V205.447H632.43V222.001H628.158ZM642.83 222.402C641.228 222.402 639.782 222.035 638.491 221.3C637.223 220.566 636.21 219.554 635.454 218.263C634.72 216.95 634.352 215.437 634.352 213.724C634.352 212.011 634.731 210.509 635.487 209.218C636.244 207.906 637.256 206.882 638.524 206.148C639.815 205.414 641.261 205.046 642.863 205.046C644.443 205.046 645.867 205.414 647.135 206.148C648.426 206.882 649.438 207.906 650.172 209.218C650.929 210.509 651.307 212.011 651.307 213.724C651.307 215.437 650.929 216.95 650.172 218.263C649.438 219.554 648.426 220.566 647.135 221.3C645.845 222.035 644.41 222.402 642.83 222.402ZM642.83 218.697C643.942 218.697 644.91 218.285 645.734 217.462C646.557 216.617 646.968 215.371 646.968 213.724C646.968 212.078 646.557 210.843 645.734 210.019C644.91 209.174 643.954 208.751 642.863 208.751C641.728 208.751 640.749 209.174 639.926 210.019C639.125 210.843 638.725 212.078 638.725 213.724C638.725 215.371 639.125 216.617 639.926 217.462C640.749 218.285 641.717 218.697 642.83 218.697ZM653.124 222.001V205.447H656.896L657.23 208.25C657.741 207.271 658.476 206.493 659.432 205.914C660.411 205.336 661.557 205.046 662.87 205.046C664.917 205.046 666.508 205.692 667.643 206.982C668.778 208.273 669.345 210.164 669.345 212.656V222.001H665.073V213.057C665.073 211.633 664.784 210.542 664.205 209.786C663.627 209.029 662.725 208.651 661.502 208.651C660.3 208.651 659.31 209.074 658.531 209.919C657.775 210.765 657.396 211.944 657.396 213.457V222.001H653.124ZM677.478 222.001V198.638H686.122C687.991 198.638 689.538 198.95 690.761 199.573C691.985 200.196 692.897 201.052 693.498 202.143C694.099 203.233 694.399 204.457 694.399 205.814C694.399 207.105 694.11 208.295 693.532 209.385C692.953 210.453 692.052 211.321 690.828 211.989C689.604 212.634 688.036 212.956 686.122 212.956H681.75V222.001H677.478ZM681.75 209.485H685.855C687.346 209.485 688.414 209.163 689.059 208.517C689.727 207.85 690.06 206.949 690.06 205.814C690.06 204.657 689.727 203.756 689.059 203.111C688.414 202.443 687.346 202.109 685.855 202.109H681.75V209.485ZM695.648 222.001V197.971H699.92V222.001H695.648ZM707.99 222.402C706.566 222.402 705.398 222.179 704.486 221.734C703.573 221.267 702.895 220.655 702.45 219.899C702.005 219.142 701.782 218.308 701.782 217.395C701.782 215.86 702.383 214.614 703.585 213.657C704.786 212.701 706.588 212.222 708.991 212.222H713.197V211.822C713.197 210.687 712.874 209.853 712.229 209.319C711.584 208.784 710.783 208.517 709.826 208.517C708.958 208.517 708.202 208.729 707.556 209.152C706.911 209.552 706.511 210.153 706.355 210.954H702.183C702.294 209.752 702.695 208.707 703.384 207.817C704.096 206.927 705.009 206.248 706.121 205.781C707.234 205.291 708.48 205.046 709.859 205.046C712.218 205.046 714.076 205.636 715.433 206.815C716.79 207.995 717.469 209.663 717.469 211.822V222.001H713.831L713.43 219.331C712.941 220.221 712.251 220.955 711.361 221.534C710.493 222.112 709.37 222.402 707.99 222.402ZM708.958 219.064C710.182 219.064 711.127 218.664 711.795 217.863C712.485 217.062 712.919 216.071 713.097 214.892H709.459C708.324 214.892 707.512 215.104 707.022 215.526C706.533 215.927 706.288 216.428 706.288 217.028C706.288 217.674 706.533 218.174 707.022 218.53C707.512 218.886 708.157 219.064 708.958 219.064ZM726.691 222.001C724.955 222.001 723.565 221.578 722.519 220.733C721.473 219.887 720.95 218.386 720.95 216.227V209.018H718.113V205.447H720.95L721.451 201.008H725.222V205.447H729.695V209.018H725.222V216.261C725.222 217.062 725.389 217.618 725.723 217.929C726.079 218.219 726.68 218.363 727.525 218.363H729.595V222.001H726.691ZM732.128 222.001V209.018H729.858V205.447H732.128V203.511C732.128 201.509 732.628 200.085 733.63 199.239C734.653 198.394 736.033 197.971 737.768 197.971H739.604V201.609H738.436C737.701 201.609 737.179 201.753 736.867 202.043C736.556 202.332 736.4 202.821 736.4 203.511V205.447H739.971V209.018H736.4V222.001H732.128ZM748.643 222.402C747.041 222.402 745.595 222.035 744.305 221.3C743.036 220.566 742.024 219.554 741.267 218.263C740.533 216.95 740.166 215.437 740.166 213.724C740.166 212.011 740.544 210.509 741.301 209.218C742.057 207.906 743.07 206.882 744.338 206.148C745.629 205.414 747.075 205.046 748.677 205.046C750.257 205.046 751.681 205.414 752.949 206.148C754.239 206.882 755.252 207.906 755.986 209.218C756.743 210.509 757.121 212.011 757.121 213.724C757.121 215.437 756.743 216.95 755.986 218.263C755.252 219.554 754.239 220.566 752.949 221.3C751.658 222.035 750.223 222.402 748.643 222.402ZM748.643 218.697C749.756 218.697 750.724 218.285 751.547 217.462C752.37 216.617 752.782 215.371 752.782 213.724C752.782 212.078 752.37 210.843 751.547 210.019C750.724 209.174 749.767 208.751 748.677 208.751C747.542 208.751 746.563 209.174 745.74 210.019C744.939 210.843 744.538 212.078 744.538 213.724C744.538 215.371 744.939 216.617 745.74 217.462C746.563 218.285 747.531 218.697 748.643 218.697ZM758.938 222.001V205.447H762.743L763.143 208.551C763.744 207.483 764.556 206.637 765.58 206.014C766.626 205.369 767.849 205.046 769.251 205.046V209.552H768.05C767.115 209.552 766.281 209.697 765.546 209.986C764.812 210.275 764.234 210.776 763.811 211.488C763.41 212.2 763.21 213.19 763.21 214.458V222.001H758.938ZM770.168 222.001V205.447H773.94L774.307 207.683C774.841 206.882 775.542 206.248 776.41 205.781C777.3 205.291 778.323 205.046 779.48 205.046C782.039 205.046 783.852 206.037 784.92 208.017C785.521 207.105 786.322 206.381 787.323 205.847C788.347 205.313 789.459 205.046 790.661 205.046C792.819 205.046 794.477 205.692 795.634 206.982C796.791 208.273 797.369 210.164 797.369 212.656V222.001H793.097V213.057C793.097 211.633 792.819 210.542 792.263 209.786C791.729 209.029 790.895 208.651 789.76 208.651C788.603 208.651 787.668 209.074 786.956 209.919C786.266 210.765 785.922 211.944 785.922 213.457V222.001H781.65V213.057C781.65 211.633 781.371 210.542 780.815 209.786C780.259 209.029 779.402 208.651 778.245 208.651C777.11 208.651 776.187 209.074 775.475 209.919C774.785 210.765 774.44 211.944 774.44 213.457V222.001H770.168Z" fill="#006838"/>
</svg>
