<svg id="Layer_1" data-name="Layer 1" xmlns="http://www.w3.org/2000/svg" xmlns:xlink="http://www.w3.org/1999/xlink" viewBox="0 0 1024 1024"><defs><style>.cls-1{fill:url(#linear-gradient);}</style><linearGradient id="linear-gradient" x1="347.38" y1="514" x2="1372.2" y2="514" gradientTransform="matrix(1, 0, 0, -1, 0, 1026)" gradientUnits="userSpaceOnUse"><stop offset="0" stop-color="#29945c"/><stop offset="0.22" stop-color="#1f965d"/><stop offset="0.54" stop-color="#14985f"/><stop offset="0.86" stop-color="#129a5f"/></linearGradient></defs><title>logo</title><path class="cls-1" d="M601.31,16.31S357.33-21.39,134,133.19c0,0,23.31,186.24,156,161.83h0A435.15,435.15,0,0,1,423,270.1c212.5-7.83,406.13,127.48,463.54,332,3.85,13.8,7.32,28.19,10.27,43.15,0,0-125.16-112.64-330.66,17.41a676.94,676.94,0,0,1-130,64.92C334,764.73,184.65,793,144,662.62A162.72,162.72,0,0,1,203.72,482.8c69.87-50.48,201-92.28,431.88-9.44-5-3.92-238-182.51-484.41-18.5A339.52,339.52,0,0,0,14,634.17c-24.22,76.67-28.13,180.45,61.52,279.1,171.79,189,508.55,65.31,601.42-34.36v3.14a129.58,129.58,0,0,0,129.53,129.66H1024V415S1020.6,71.34,601.31,16.31Z"/></svg>