<svg xmlns="http://www.w3.org/2000/svg" xmlns:xlink="http://www.w3.org/1999/xlink" viewBox="0 0 647.25 199.18"><defs><style>.cls-1{fill:url(#linear-gradient);}.cls-2{fill:#2b945b;}</style><linearGradient id="linear-gradient" x1="54.22" y1="77.82" x2="213.8" y2="77.82" gradientUnits="userSpaceOnUse"><stop offset="0" stop-color="#2b945b"/><stop offset="0.22" stop-color="#1f965c"/><stop offset="0.54" stop-color="#12985e"/><stop offset="0.86" stop-color="#0e995e"/></linearGradient></defs><g id="Layer_2" data-name="Layer 2"><g id="Layer_1-2" data-name="Layer 1"><path class="cls-1" d="M93.76.63S55.77-5.24,21,18.83c0,0,3.63,29,24.29,25.2h0l0,0A67.73,67.73,0,0,1,66,40.15C99.09,38.93,129.24,60,138.18,91.84c.6,2.15,1.14,4.39,1.6,6.72,0,0-19.49-17.54-51.49,2.71a105.41,105.41,0,0,1-20.24,10.11c-15.91,5.79-39.17,10.19-45.5-10.11a25.34,25.34,0,0,1,9.3-28C42.73,65.41,63.15,58.9,99.1,71.8c-.78-.61-37.06-28.42-75.43-2.88A52.87,52.87,0,0,0,2.31,96.84c-3.77,11.94-4.38,28.1,9.58,43.46,26.75,29.43,79.19,10.17,93.65-5.35v.49a20.18,20.18,0,0,0,20.19,20.19h33.85V62.71S159.05,9.2,93.76.63Z"/><path class="cls-2" d="M239,77.88v37.17H224.47a6.32,6.32,0,0,1-6.32-6.32h0c-3.48,4.64-9.16,7.27-16.74,7.27C189.19,116,182,108.73,182,98c0-11,7.69-17.16,22.12-17.37h14v-.21c0-4.74-3.37-7.58-9.9-7.58a37.64,37.64,0,0,0-8.92,1.26A9.92,9.92,0,0,1,187.63,68l-1.91-5.13c9.37-3.79,18.64-5.9,27.59-5.9C229.42,56.93,239,64.62,239,77.88ZM218.15,96.21V91.05h-9.69c-4.21,0-6.42,1.78-6.42,5.36s2.32,5.69,6.42,5.69A10.41,10.41,0,0,0,218.15,96.21Z"/><path class="cls-2" d="M305.52,110.1c0,16.11-12.74,26.33-31.48,26.33A49.35,49.35,0,0,1,247.61,129l7-14.32a33,33,0,0,0,17.59,5.27c7.68,0,12.21-3.59,12.21-9.17v-5.79c-3.69,4.43-8.85,6.85-15.37,6.85-13.9,0-24-11-24-27.69,0-16.32,9.79-27.06,23.59-27.06,6.73,0,12.1,2.52,15.79,7V57.77h21.06ZM284.46,84.73c0-7.27-3.9-12-9.79-12s-9.69,4.84-9.69,12,3.9,11.79,9.69,11.79S284.46,91.78,284.46,84.73Z"/><path class="cls-2" d="M333.73,68.09a20.49,20.49,0,0,1,18-9.89V77.36c-11-1.37-18,3.26-18,11.58V107a9.31,9.31,0,0,1-9.31,9.32h-12V59h21.27Z"/><path class="cls-2" d="M422,86.41c0,17.69-12.53,29.38-31.8,29.38s-31.9-11.69-31.9-29.38S371,57,390.24,57,422,68.62,422,86.41Zm-42.22.21c0,7.69,4.1,12.74,10.42,12.74s10.32-5,10.32-12.74-4.11-12.74-10.32-12.74S379.82,79,379.82,86.62Z"/><path class="cls-2" d="M458.23,59.25c-9.68,0-17.26,4.53-21.37,12.32V36.93h-8.21v78.12h4a4.24,4.24,0,0,0,4.25-4.24v-7.66c4.11,7.69,11.69,12.22,21.58,12.22,15.69,0,26.43-11.48,26.43-27.9C484.87,70.83,473.92,59.25,458.23,59.25Zm.94,48.64c-11.69,0-19.9-8.53-19.9-20.64s8.21-20.63,19.9-20.63S479,75.36,479,87.25,470.75,107.89,459.17,107.89Z"/><path class="cls-2" d="M530.65,105.8c-4.43,6-11.48,9-20.33,9-11.47,0-18.84-7.37-18.84-17S499.16,82,512.22,81.9h18.22V78.64c0-8.11-5.06-13-14.85-13a28.1,28.1,0,0,0-14.12,4.12,4.18,4.18,0,0,1-5.66-1.6L494.53,66c7.16-4.74,13.16-7.47,22.64-7.47,13.69,0,21.27,7.26,21.37,19.16l.11,36.64h-3a5,5,0,0,1-5-5Zm-.11-10.63V88.53H513.27c-9.26,0-14.11,2.85-14.11,9s4.95,10.11,12.74,10.11C521.27,107.59,528.43,102.85,530.54,95.17Z"/><path class="cls-2" d="M573.58,121.91c-3.48,8.53-9.27,13-16.64,13a17.65,17.65,0,0,1-11.69-4.1l3.48-6.85a13.1,13.1,0,0,0,7.79,2.63c4.32,0,7.9-2.63,10.11-7.79l2.31-5.16L546,58.53h8.63l18.43,45.8,17.58-45.8h8.43Z"/><path class="cls-2" d="M645.46,64.3l-3.16,6.53a29.24,29.24,0,0,0-15-4.53c-6.21,0-11,2.21-11,7.37,0,12.32,31,6,31,25.9,0,11-9.68,15.8-20.32,15.8-7.9,0-16-2.74-21.27-7.79l3.16-6.22a28.07,28.07,0,0,0,18.43,7.06c6.53,0,11.79-2.42,11.9-7.9.31-13.37-30.75-6.53-30.64-26.22,0-10.63,9.16-15,19.26-15A32,32,0,0,1,645.46,64.3Z"/><path class="cls-2" d="M377.44,165.34v21.49H369a3.65,3.65,0,0,1-3.65-3.65h0c-2,2.68-5.3,4.2-9.68,4.2-7.06,0-11.2-4.2-11.2-10.41,0-6.39,4.45-9.92,12.78-10h8.1v-.12c0-2.74-1.95-4.39-5.72-4.39a22.52,22.52,0,0,0-5.65.86,5.14,5.14,0,0,1-6.1-3.21l-1.28-3.43a42.79,42.79,0,0,1,15.95-3.41C371.9,153.23,377.44,157.68,377.44,165.34Zm-12.05,10.6v-3h-5.6c-2.44,0-3.71,1-3.71,3.11s1.34,3.28,3.71,3.28A6,6,0,0,0,365.39,175.94Z"/><path class="cls-2" d="M416.33,184c0,9.31-7.36,15.21-18.2,15.21a28.49,28.49,0,0,1-15.27-4.32l4.07-8.27a19.19,19.19,0,0,0,10.17,3c4.44,0,7.06-2.07,7.06-5.3V181a11.06,11.06,0,0,1-8.89,3.95c-8,0-13.87-6.33-13.87-16,0-9.44,5.66-15.65,13.63-15.65a11.44,11.44,0,0,1,9.13,4v-3.59h12.17ZM404.16,169.3c0-4.2-2.25-6.94-5.66-6.94s-5.6,2.8-5.6,6.94,2.25,6.82,5.6,6.82S404.16,173.38,404.16,169.3Z"/><path class="cls-2" d="M435.87,159a11.84,11.84,0,0,1,10.41-5.72v11.08c-6.33-.79-10.41,1.89-10.41,6.7v10.38a5.45,5.45,0,0,1-5.44,5.44h-6.85V153.72h12.29Z"/><path class="cls-2" d="M484.87,170.27c0,10.23-7.25,17-18.39,17S448,180.5,448,170.27s7.31-17,18.44-17S484.87,160,484.87,170.27Zm-24.41.13c0,4.44,2.37,7.36,6,7.36s6-2.92,6-7.36-2.37-7.37-6-7.37S460.46,166,460.46,170.4Z"/><path class="cls-2" d="M497.46,151.59v4.14h9.2v3.89h-9.2v24.5a2.7,2.7,0,0,1-2.7,2.71h-2V159.62h-4.14v-3.89h4.14V152.2c0-7,4.93-10.77,10.28-10.77a12.06,12.06,0,0,1,6.88,2.25L508,147.51a8.68,8.68,0,0,0-4.87-1.64A5.38,5.38,0,0,0,497.46,151.59Z"/><path class="cls-2" d="M540.19,170.76c0,9.62-6.75,16.25-16.25,16.25s-16.25-6.63-16.25-16.25,6.76-16.13,16.25-16.13S540.19,161.21,540.19,170.76Zm-27.75.06c0,7.06,4.81,11.93,11.5,11.93s11.5-4.87,11.5-11.93S530.64,159,523.94,159,512.44,163.82,512.44,170.82Z"/><path class="cls-2" d="M577.81,170.76c0,9.62-6.76,16.25-16.25,16.25s-16.26-6.63-16.26-16.25,6.76-16.13,16.26-16.13S577.81,161.21,577.81,170.76Zm-27.76.06c0,7.06,4.81,11.93,11.51,11.93s11.5-4.87,11.5-11.93S568.25,159,561.56,159,550.05,163.82,550.05,170.82Z"/><path class="cls-2" d="M610.86,141.67v20c-2.38-4.56-6.82-7.18-12.54-7.18-9.07,0-15.4,6.64-15.4,16.25s6.33,16.31,15.46,16.31c5.72,0,10.1-2.61,12.48-7.12v3.55a3.33,3.33,0,0,0,3.33,3.33h1.41V141.67Zm-12.51,41.11c-6.81,0-11.62-5-11.62-11.93s4.81-12,11.62-12,11.57,5,11.57,12S605.11,182.78,598.35,182.78Z"/><path class="cls-2" d="M646.22,157.49l-1.83,3.78a16.85,16.85,0,0,0-8.7-2.62c-3.59,0-6.33,1.28-6.33,4.26,0,7.12,17.89,3.47,17.89,15,0,6.33-5.6,9.13-11.74,9.13a18.1,18.1,0,0,1-12.3-4.5l1.83-3.59A16.27,16.27,0,0,0,635.69,183c3.77,0,6.82-1.39,6.88-4.56.18-7.73-17.78-3.77-17.72-15.15,0-6.15,5.3-8.71,11.14-8.71A18.59,18.59,0,0,1,646.22,157.49Z"/></g></g></svg>